<?xml version="1.0" standalone="no"?><!DOCTYPE svg PUBLIC "-//W3C//DTD SVG 1.1//EN" "http://www.w3.org/Graphics/SVG/1.1/DTD/svg11.dtd"><svg t="1627609908272" class="icon" viewBox="0 0 1024 1024" version="1.1" xmlns="http://www.w3.org/2000/svg" p-id="7602" width="32" height="32" xmlns:xlink="http://www.w3.org/1999/xlink"><defs><style type="text/css">@font-face { font-family: feedback-iconfont; src: url("//at.alicdn.com/t/font_1031158_1uhr8ri0pk5.eot?#iefix") format("embedded-opentype"), url("//at.alicdn.com/t/font_1031158_1uhr8ri0pk5.woff2") format("woff2"), url("//at.alicdn.com/t/font_1031158_1uhr8ri0pk5.woff") format("woff"), url("//at.alicdn.com/t/font_1031158_1uhr8ri0pk5.ttf") format("truetype"), url("//at.alicdn.com/t/font_1031158_1uhr8ri0pk5.svg#iconfont") format("svg"); }
</style></defs><path d="M155.953699 545.358174c-15.973542-15.973542-15.973542-41.88116 0-57.798258a40.865175 40.865175 0 0 1 57.346709-0.451549l0.507992 0.451549 298.1916 298.1916 298.1916-298.1916a40.865175 40.865175 0 0 1 57.346709-0.451549l0.507992 0.451549a40.865175 40.865175 0 0 1 0.451549 57.34671l-0.451549 0.507992-327.147172 327.034285a40.865175 40.865175 0 0 1-57.346709 0.451549l-0.507993-0.451549-327.090728-327.090729z m0-336.008819c-15.973542-15.973542-15.973542-41.88116 0-57.798258a40.865175 40.865175 0 0 1 57.346709-0.451549l0.507992 0.451549 298.1916 298.1916 298.1916-298.1916a40.865175 40.865175 0 0 1 57.346709-0.451549l0.507992 0.451549a40.865175 40.865175 0 0 1 0.451549 57.346709l-0.451549 0.507993-327.147172 327.034285a40.865175 40.865175 0 0 1-57.346709 0.451549l-0.507993-0.451549-327.090728-327.090729z" p-id="7603" fill="#ffffff"></path></svg>